<svg width="79.000000" height="97.000000" viewBox="0 0 79 97" fill="none" xmlns="http://www.w3.org/2000/svg" xmlns:xlink="http://www.w3.org/1999/xlink">
	<desc>
			Created with Pixso.
	</desc>
	<defs/>
	<path id="Rectangle 26" d="M78.46 57.76C78.46 79.43 60.9 97 39.23 97C17.56 97 0 79.43 0 57.76L0 0L78.46 0L78.46 57.76Z" fill="#46EBB0" fill-opacity="1.000000" fill-rule="evenodd"/>
	<path id="Vector" d="M38.01 69.05C38.01 66.24 40.29 69.05 43.1 69.05C45.91 69.05 48.19 66.24 48.19 69.05C48.19 71.85 45.91 74.13 43.1 74.13C40.29 74.13 38.01 71.86 38.01 69.05Z" fill="#FFFFFF" fill-opacity="1.000000" fill-rule="nonzero"/>
	<path id="Vector" d="M21.98 69.05C21.98 66.24 24.26 69.05 27.07 69.05C29.88 69.05 32.16 66.24 32.16 69.05C32.16 71.85 29.88 74.13 27.07 74.13C24.26 74.13 21.98 71.86 21.98 69.05Z" fill="#FFFFFF" fill-opacity="1.000000" fill-rule="nonzero"/>
	<path id="Vector" d="M27.08 58.26C27.08 53.09 31.27 48.91 36.44 48.91C41.6 48.91 45.79 53.1 45.79 58.26C45.79 63.43 41.6 57.9 36.44 57.9C31.27 57.9 27.08 63.43 27.08 58.26Z" fill="#FFFFFF" fill-opacity="1.000000" fill-rule="nonzero"/>
</svg>
