<svg width="121.000000" height="121.000000" viewBox="0 0 121 121" fill="none" xmlns="http://www.w3.org/2000/svg" xmlns:xlink="http://www.w3.org/1999/xlink">
	<desc>
			Created with Pixso.
	</desc>
	<defs/>
	<path id="Vector" d="M96 34.95C109.66 54.32 104.58 81.42 84.65 95.48C64.72 109.53 37.49 105.23 23.82 85.85C10.16 66.48 15.24 39.38 35.18 25.32C55.11 11.27 82.34 15.58 96 34.95Z" fill="#FAD34F" fill-opacity="1.000000" fill-rule="evenodd"/>
	<path id="Vector" d="M56.16 40.78C57.09 42.09 55.63 42.21 54.29 43.16C52.94 44.11 52.21 45.54 51.28 44.22C50.36 42.91 50.7 41.08 52.05 40.13C53.4 39.18 55.24 39.47 56.16 40.78Z" fill="#FFFFFF" fill-opacity="1.000000" fill-rule="nonzero"/>
	<path id="Vector" d="M65.49 34.21C66.41 35.52 64.96 35.64 63.61 36.59C62.26 37.54 61.53 38.96 60.61 37.65C59.68 36.34 60.03 34.51 61.37 33.56C62.72 32.6 64.56 32.9 65.49 34.21Z" fill="#FFFFFF" fill-opacity="1.000000" fill-rule="nonzero"/>
	<path id="Vector" d="M67.46 41.93C69.27 44.49 68.59 48.07 65.96 49.92C63.33 51.78 59.73 51.21 57.93 48.65C56.13 46.09 60.19 47.32 62.82 45.47C65.45 43.61 65.66 39.37 67.46 41.93Z" fill="#FFFFFF" fill-opacity="1.000000" fill-rule="nonzero"/>
</svg>
