<svg width="298.000000" height="298.000000" viewBox="0 0 298 298" fill="none" xmlns="http://www.w3.org/2000/svg" xmlns:xlink="http://www.w3.org/1999/xlink">
	<desc>
			Created with Pixso.
	</desc>
	<defs/>
	<path id="Vector" d="M69.74 220.19C108.44 262.63 175.22 264.76 218.88 224.94C262.54 185.12 266.57 118.43 227.86 75.99C189.16 33.55 122.39 31.43 78.72 71.25C35.06 111.07 31.04 177.75 69.74 220.19Z" fill="#F472B7" fill-opacity="1.000000" fill-rule="evenodd"/>
	<path id="Vector" d="M104.34 128.98C106.96 131.85 108 128.47 110.95 125.78C113.9 123.09 117.65 122.11 115.03 119.23C112.41 116.36 107.9 116.22 104.95 118.91C101.99 121.6 101.72 126.11 104.34 128.98Z" fill="#FFFFFF" fill-opacity="1.000000" fill-rule="nonzero"/>
	<path id="Vector" d="M83.91 147.61C86.53 150.47 87.58 147.1 90.53 144.41C93.48 141.72 97.22 140.73 94.6 137.86C91.98 134.98 87.47 134.85 84.52 137.54C81.57 140.22 81.29 144.73 83.91 147.61Z" fill="#FFFFFF" fill-opacity="1.000000" fill-rule="nonzero"/>
	<path id="Vector" d="M101.15 156.31C106.26 161.92 115.08 162.2 120.85 156.94C126.62 151.68 127.15 142.87 122.04 137.27C116.92 131.66 117.72 141.92 111.95 147.18C106.18 152.44 96.04 150.71 101.15 156.31Z" fill="#FFFFFF" fill-opacity="1.000000" fill-rule="nonzero"/>
</svg>
